<?xml version="1.0" ?><svg viewBox="0 0 100 100" xmlns="http://www.w3.org/2000/svg"><defs><style>.cls-1{fill:#e9f5f9;}.cls-2,.cls-3{fill:#107cb2;}.cls-2{fill-rule:evenodd;}</style></defs><title/><g data-name="Layer 1" id="Layer_1"><rect class="cls-1" height="77.83" rx="4.85" ry="4.85" width="81.17" x="9.42" y="11.08"/><path class="cls-2" d="M91.39,30.43c0-1.25.15-4,0-5.93C91.39,26.65,91.13,29.62,91.39,30.43ZM91.26,36a31.26,31.26,0,0,1,0-3.64A14.1,14.1,0,0,1,91.26,36Zm-.1,7.59c-.18-3.22.15-4.38,0,0Zm0,1c0,1.26-.12,1.55-.12,2.61C90.93,47,90.89,44.19,91.15,44.6Zm-.29,7.53c-.21-.77.13-1.69.06-3C91.11,48.64,90.9,51.48,90.86,52.13ZM89,85.26c.15,1.49-.12,3.11-.12,4.81C88.76,88,89,87.51,89,85.26Zm.12-5.14c0,.28,0,.28-.07.27C89,85.09,88.74,81.37,89.1,80.12Zm-.29,7c-.11-3.23.17-4.22,0,0Zm-.39-25.94c0,.57.08.72.05,1.32-.09-.16-.1-.62-.2-.76.07-.52,0-1.72.23-1.49C88.58,60.72,88.57,61,88.42,61.14ZM77.41,11c2.89.16,5.87.26,8.94.32l4.55.1L90.8,15.8c-.17,8.12-.16,16.76-.38,25.29-.23,8.87-.72,18.4-1,26.48,0,.83,0,2.13,0,3s-.23,1.32-.25,2.13c0,.31.19.51.19.46,0,.52-.17-.08-.21.18-.13,1.14,0,3.66-.18,5.1.07-.79-.26.65-.22,1.45-.09-.37-.06-2.39-.12-.42,0-1.26-.07-3.87.21-4.07,0-.38-.11-.36-.19-.47.25-4.94.28-8.4.39-14.71-.4,5.47-.24,10.1-.59,14.89-.21-1.79-.17-3.33-.4-4.16.14,0,.17.34.26.5,0-2.92.14-3.33.07-5.12-.34-.45.08,1.24-.15,1.19a34.26,34.26,0,0,1,.06-4.8c.28,1.2-.17,2.32.1,3,.13-.11,0-.88,0-.32a53.18,53.18,0,0,0,.14-5.41c0-.84-.13.38-.29-.15.2-5.28,0-8.69.35-12.4,0-1.13-.21,0-.22-.72,0-1.54,0-2.9.33-2.79-.28-.65-.46-3.2-.05-3.56-.53-2.7.36-8.63-.18-11.91,0-.79.27-.06.32,0,0-2.53-.24-6-.06-10,0-.44-.2-.27-.32-.33a18.42,18.42,0,0,1,.16-2.23c.25.4-.09,1.1,0,1.92.21-.06.16-1.14.16-2.05l0-2.42-2.42,0h-.49c-.44,0,0,.14.31.16-3.16.24-6.32,0-10,.08v-.32H74a7.7,7.7,0,0,0,1.56.16c-2.13.35-7.15-.15-10.63.24-1.6-.49-4.11-.42-7.51-.4-1.94,0-2.1.21-3.13.16-1.4-.07-7.66.39-10.32,0-6.58.42-18.42.29-29.35.39l-2,0,0,2c0,3.4.08,6.71.18,9.74.07,2.28.29,4.16.16,6.25-.06.9.31,2.06.32,2.81a33.48,33.48,0,0,0-.08,5c.14.12.15-.24.16-.63.07.4.16,1.52-.16,1.25.21,1.79,0,3.41.32,4.69-.13,3.29.35,9,.32,13.13a1.66,1.66,0,0,0,.16-.94c.35.29-.11,1.52.24,1.56,0,.58-.27.19-.32.63a5.69,5.69,0,0,1,.08.63c0,.46.1-.12.24,0a1.77,1.77,0,0,1-.24.63c0,.81.14-.43.32,0,0,1.11-.29.77-.24,1.88,0,.7.2-.41.4,0C14.73,69,15,77.14,16,82.77c-.4,2.09.18,2.85.31,4.78l-1.75-1.75a11.17,11.17,0,0,1,1.14,0c2.62-.25,6.14-1.07,9.07-1.27.58,0,.92.11,1.22.09,5.23-.53,10.94-1.77,17.66-2.15,6.52-.38,12.14-1,18.84-.46,5.57.4,10,1,15.19,1.79.44.35,3.17.91,5.12,1.44s3.12,1,.26,1.47c-2.57.38-10.73.55-15.12.88-5.16.39-9.6,1.07-14,1.47-3.49.31-6.52.41-10,.76l-8.17.85c-6.74.7-13.85,1.32-21.24,1.8l-4.54.29L9.7,87.55C9.06,78.1,8.6,68.34,8.36,58.38,8.06,46.14,8.17,35,8.12,22.73c.13-.09.14.3.24.31a53.32,53.32,0,0,0,0-5.63c-.21.43,0,2.65-.16,3.13-.11-1.33-.18-3-.21-4.74L7.84,9.34l6.75-.15c3.15-.07,6.75,0,9.65.05,0,.08-.38.06-.63.08,10.92.42,27.68.26,41,.24a90.25,90.25,0,0,0,10.63.08c3,.13,6.86.19,11.13.24l6,.07-.06,5.85c-.08,7.95-.18,17.29-.5,25-.23,5.53-.32,9.42-.63,13.11l.56-33.67c-.31-.28-.11,1.55-.17,2.3-.22.22.06-1.55-.16-1.33-.21,4.93-.31,13.13-.37,18.4-.28-.34,0-1.15-.22-1.7.35-7.07.29-15,.27-22.09V11.1H86.34C83.16,11.11,80.14,11.1,77.41,11Zm6.26-.32a9.17,9.17,0,0,1,2.68.07l5.31.32-.27,4.71a4,4,0,0,0,.07,1.12c0-.52,0-1.14.16-1,.08,1.23-.17,1.06-.24,1.64.29-.51,0,1.12.24,1l.07-2.77.13-5.22-5.46-.11a77.61,77.61,0,0,0-9.25.15C80.39,10.68,85.22,10.44,83.66,10.7ZM89.3,50.21a15.33,15.33,0,0,0,0-2.59A9.43,9.43,0,0,0,89.3,50.21Zm-.35-2.4c.25-1.63-.06-3.13,0,0-.18-.1-.22,2.39,0,1.29,0,0-.09-.08-.07-.35.08,0,.09.29.15.38A7.15,7.15,0,0,0,88.95,47.81Zm1.82-4a5.07,5.07,0,0,1-.06-1.34l.08,0C90.85,37.46,91,42.87,90.77,43.83Zm-.11,6.9c-.23.38-.05-5.29.17-5.56C90.75,46.67,90.63,49.82,90.66,50.72Z"/><rect class="cls-3" height="37.51" width="10.73" x="26" y="38.04"/><path class="cls-2" d="M74.15,49.06V75.55H63.42V50.85a8.12,8.12,0,0,0-10-.87,6.56,6.56,0,0,0-.74.53v25H42V38H52.68V43.2c.79-3.66,4.05-5.16,8-5.16C60.63,38,74.15,37.88,74.15,49.06Z"/><circle class="cls-3" cx="31.37" cy="29.96" r="5.51"/></g></svg>